<?xml version="1.0" standalone="no"?>
<!DOCTYPE svg PUBLIC "-//W3C//DTD SVG 20010904//EN"
 "http://www.w3.org/TR/2001/REC-SVG-20010904/DTD/svg10.dtd">
<svg version="1.0" xmlns="http://www.w3.org/2000/svg"
 width="90.000000pt" height="50.000000pt" viewBox="0 0 90.000000 50.000000"
 preserveAspectRatio="xMidYMid meet">

<g transform="translate(0.000000,50.000000) scale(0.100000,-0.100000)"
fill="#000000" stroke="none">
<path d="M16 481 c-25 -27 -5 -63 31 -59 32 4 44 28 13 28 -13 0 -19 4 -14 11
3 6 15 8 26 6 19 -5 19 -5 2 14 -22 24 -36 24 -58 0z"/>
<path d="M830 485 c-7 -8 -10 -25 -6 -40 8 -31 50 -35 66 -5 23 42 -30 81 -60
45z"/>
<path d="M407 463 c51 -2 135 -2 185 0 51 1 10 3 -92 3 -102 0 -143 -2 -93 -3z"/>
<path d="M10 69 c-9 -15 -8 -24 1 -35 13 -16 45 -19 54 -4 3 6 -1 10 -9 10 -9
0 -16 5 -16 10 0 6 10 10 21 10 18 0 19 2 9 15 -18 21 -47 19 -60 -6z"/>
<path d="M820 71 c-14 -28 18 -66 48 -57 28 9 38 44 18 64 -15 15 -16 14 -16
-6 0 -12 -4 -22 -10 -22 -5 0 -10 9 -10 20 0 25 -16 26 -30 1z"/>
<path d="M455 50 c3 -5 28 -10 56 -10 27 0 49 5 49 10 0 6 -25 10 -56 10 -34
0 -53 -4 -49 -10z"/>
</g>
</svg>
